<svg width="22" height="22" viewBox="0 0 22 22" fill="none" xmlns="http://www.w3.org/2000/svg">
<path d="M0 3C0 1.34315 1.34315 0 3 0H19C20.6569 0 22 1.34315 22 3V19C22 20.6569 20.6569 22 19 22H3C1.34315 22 0 20.6569 0 19V3Z" fill="#86ED78"/>
<path fill-rule="evenodd" clip-rule="evenodd" d="M10.9991 15.5456C8.7731 15.5456 7.24931 13.9061 7.24931 11.8781C7.24931 9.84889 8.7731 8.18134 10.9991 8.18134C13.2263 8.18134 14.7489 9.84889 14.7489 11.8781C14.7489 13.9061 13.2263 15.5456 10.9991 15.5456ZM11.0437 4.50012C6.93395 4.47689 3.53497 7.76612 3.50025 11.8019C3.48259 13.9377 4.39187 15.8662 5.85597 17.2228C6.38887 17.7155 7.21228 17.7637 7.79025 17.3222C8.6441 16.6705 9.73974 16.282 10.9998 16.282C12.2599 16.282 13.3562 16.6711 14.21 17.3222C14.7928 17.7673 15.6199 17.7101 16.1552 17.212C17.5986 15.8698 18.5 13.9699 18.5 11.8638C18.5 7.8114 15.165 4.52276 11.0437 4.50012Z" fill="white"/>
</svg>
