<?xml version="1.0" encoding="UTF-8"?>
<svg width="1893.7" height="371.57" version="1.1" xmlns="http://www.w3.org/2000/svg">
 <g transform="matrix(10,0,0,10,-3.17,-3.04)" clip-path="url(#clip0_226_537)">
  <path d="m15.727 20.171v-19.867h-15.41v17.74c0 12.497 6.02 17.466 14.52 17.092 5.39-0.237 8.383-3.15 9.108-5.418-5.404 0-8.221-3.221-8.221-9.547zm14.154-19.867a5.933 5.933 0 0 0-5.933 5.934v23.48h0.694c8.127 0 14.715-6.588 14.715-14.715v-14.699z" fill="#00e58e"/>
  <path d="m107.1 30.544h5.573v-25.584h-5.573v25.585zm31.907-10.791c-0.702-1.06-1.662-1.84-2.803-2.39-0.981-0.474-2.02-0.803-3.078-1.05-1.643-0.384-3.298-0.728-4.949-1.086-1.163-0.252-2.304-0.57-3.38-1.094-1.412-0.686-1.712-2.175-1.17-3.353 0.344-0.75 0.989-1.165 1.72-1.457 1.333-0.532 2.727-0.595 4.134-0.458 1.029 0.1 1.981 0.423 2.806 1.063 0.758 0.586 1.234 1.354 1.45 2.28 0.084 0.365 0.126 0.739 0.186 1.11l5.35-0.721c-0.056-0.731-0.216-1.644-0.503-2.443-0.599-1.662-1.641-2.975-3.114-3.945-1.509-0.994-3.192-1.494-4.975-1.7a20.33 20.33 0 0 0-3.441-0.083c-1.07 0.055-2.127 0.197-3.166 0.468-1.431 0.37-2.777 0.918-3.935 1.86-1.086 0.88-1.856 1.977-2.217 3.34-0.257 0.972-0.249 1.956-0.123 2.947 0.11 0.86 0.35 1.684 0.812 2.417 0.742 1.17 1.77 2.047 3.017 2.633 0.652 0.305 1.341 0.54 2.03 0.76 1.749 0.56 3.559 0.86 5.352 1.23 1.158 0.24 2.302 0.52 3.391 0.992 0.47 0.206 0.925 0.442 1.27 0.84 0.455 0.525 0.578 1.143 0.502 1.825-0.087 0.783-0.421 1.422-1.052 1.899-0.799 0.604-1.736 0.83-2.703 0.957-0.947 0.12-1.899 0.108-2.849 5e-3 -1.091-0.118-2.133-0.397-3.066-0.994-0.887-0.568-1.468-1.362-1.728-2.383-0.079-0.31-0.121-0.628-0.182-0.957l-5.449 0.728c0.045 0.729 0.189 1.634 0.426 2.31 0.618 1.767 1.783 3.071 3.358 4.026 1.655 1.002 3.491 1.444 5.392 1.654 1.168 0.13 2.341 0.148 3.514 0.09s2.335-0.187 3.477-0.476c1.743-0.442 3.342-1.152 4.634-2.446a6.288 6.288 0 0 0 1.633-2.825 8.136 8.136 0 0 0 0.202-3.387c-0.115-0.779-0.334-1.526-0.77-2.183zm50.583 2.186c-0.116-0.779-0.334-1.526-0.771-2.183-0.702-1.06-1.662-1.841-2.803-2.39-0.981-0.474-2.02-0.803-3.077-1.05-1.644-0.384-3.298-0.729-4.95-1.086-1.163-0.253-2.304-0.571-3.38-1.095-1.412-0.686-1.712-2.175-1.17-3.353 0.344-0.75 0.989-1.165 1.72-1.457 1.333-0.531 2.727-0.594 4.134-0.457 1.029 0.1 1.981 0.423 2.807 1.062a3.933 3.933 0 0 1 1.449 2.28c0.084 0.366 0.126 0.74 0.186 1.11l5.35-0.72a9.748 9.748 0 0 0-0.503-2.444c-0.599-1.662-1.641-2.974-3.113-3.945-1.51-0.994-3.193-1.493-4.976-1.699a20.317 20.317 0 0 0-3.44-0.084 15.71 15.71 0 0 0-3.167 0.468c-1.431 0.371-2.777 0.918-3.934 1.86-1.087 0.88-1.857 1.978-2.217 3.34-0.258 0.973-0.25 1.957-0.124 2.948 0.11 0.86 0.35 1.683 0.813 2.417 0.741 1.17 1.77 2.046 3.016 2.633 0.652 0.305 1.341 0.539 2.031 0.76 1.748 0.56 3.558 0.86 5.352 1.23 1.157 0.24 2.301 0.519 3.39 0.992 0.47 0.205 0.925 0.442 1.27 0.84 0.455 0.525 0.579 1.143 0.502 1.824-0.087 0.784-0.421 1.423-1.052 1.9-0.799 0.604-1.736 0.83-2.703 0.956-0.947 0.121-1.899 0.108-2.849 6e-3 -1.091-0.119-2.133-0.397-3.066-0.994-0.887-0.569-1.468-1.363-1.728-2.383-0.079-0.31-0.121-0.629-0.182-0.958l-5.449 0.729c0.045 0.729 0.189 1.633 0.426 2.31 0.618 1.767 1.783 3.071 3.359 4.026 1.654 1.002 3.49 1.444 5.391 1.654a22.17 22.17 0 0 0 3.514 0.09c1.173-0.059 2.335-0.187 3.477-0.477 1.743-0.442 3.342-1.152 4.634-2.446a6.279 6.279 0 0 0 1.633-2.824 8.086 8.086 0 0 0 0.202-3.388zm-88.368-10.899c-0.426-1.47-1.149-2.764-2.283-3.813-1.38-1.279-3.022-2.047-4.84-2.465-1.819-0.42-3.907-0.489-5.761-0.307-1.355 0.134-2.67 0.436-3.914 0.996-1.888 0.847-3.43 2.096-4.418 3.95a8.452 8.452 0 0 0-0.929 2.857c-0.11 0.823-0.194 1.657-0.197 2.488-0.018 5.173-8e-3 10.346-8e-3 15.52v0.283h5.636v-0.336c0-5.018-2e-3 -10.013 3e-3 -15.028 0-1 0.071-1.996 0.402-2.954 0.545-1.567 1.626-2.559 3.235-2.956 1.344-0.334 2.948-0.32 4.284 0.024 1.61 0.413 2.694 1.41 3.222 2.998 0.313 0.94 0.395 1.904 0.395 2.883v15.367h5.638v-15.843c0-1.24-0.115-2.465-0.462-3.659zm-26.886-6.088h-5.637v0.336c0 5.018 3e-3 10.013-2e-3 15.028 0 1-0.071 1.996-0.403 2.954-0.544 1.564-1.625 2.558-3.234 2.956-1.344 0.334-3.448 0.32-4.787-0.024-1.61-0.413-2.693-1.41-3.222-2.998-0.313-0.94-0.394-1.904-0.394-2.883v-15.367h-5.639v15.843c0 1.239 0.116 2.465 0.463 3.659 0.426 1.47 1.15 2.764 2.283 3.813 1.38 1.278 3.021 2.046 4.839 2.464 1.82 0.421 4.41 0.49 6.264 0.308 1.355-0.134 2.67-0.436 3.914-0.997 1.888-0.846 3.43-2.096 4.418-3.95a8.451 8.451 0 0 0 0.929-2.856c0.11-0.823 0.194-1.657 0.197-2.488 0.018-5.173 8e-3 -10.346 8e-3 -15.52v-0.284l2e-3 6e-3zm83.741 5.146c-0.123 0.337-0.552 1.592-1.286 3.767-1.499 4.44-2.556 7.621-3.169 9.55h-0.229c-0.918-3.183-2.312-7.578-4.179-13.18l-1.744-5.28h-6.062l8.771 23.598-0.413 0.873c-0.612 1.378-1.286 2.304-2.019 2.778-0.734 0.476-1.868 0.712-3.398 0.712a30.95 30.95 0 0 1-1.928-0.047v4.5c1.162 0.06 1.975 0.092 2.433 0.092 2.08 0 3.818-0.245 5.21-0.734 1.393-0.489 2.593-1.33 3.603-2.525 1.01-1.194 1.927-2.877 2.753-5.05l9.321-24.195h-5.923l-1.743 5.141z" fill="#007173"/>
 </g>
</svg>